<svg version="1.1" xmlns="http://www.w3.org/2000/svg" xmlns:xlink="http://www.w3.org/1999/xlink" width="25" height="25" viewBox="0,0,256,256"><g fill="#999999" fill-rule="evenodd" stroke="none" stroke-width="1" stroke-linecap="butt" stroke-linejoin="miter" stroke-miterlimit="10" stroke-dasharray="" stroke-dashoffset="0" font-family="none" font-weight="none" font-size="none" text-anchor="none" style="mix-blend-mode: normal"><g transform="translate(2.56,-9.28984) scale(10.24,10.24)"><path d="M11.8971,2.99546c0.2205,-0.11765 0.4853,-0.11765 0.7058,0l11.25,6c0.2444,0.13035 0.3971,0.38478 0.3971,0.66177c0,0.27698 -0.1527,0.53137 -0.3971,0.66177l-11.25,6c-0.2205,0.1176 -0.4853,0.1176 -0.7058,0l-11.25004,-6c-0.2444,-0.1304 -0.39706,-0.38479 -0.39706,-0.66177c0,-0.27699 0.15266,-0.53142 0.39706,-0.66177zM2.59375,9.65723l9.65625,5.14997l9.6562,-5.14997l-9.6562,-5.15z"></path><path d="M11.5883,9.30428c0.1949,-0.36548 0.6492,-0.50375 1.0147,-0.30882l5.625,3.00004c0.2444,0.1303 0.397,0.3847 0.397,0.6617v10.5c0,0.4142 -0.3358,0.75 -0.75,0.75c-0.4142,0 -0.75,-0.3358 -0.75,-0.75v-10.05l-5.2279,-2.7882c-0.3655,-0.1949 -0.5038,-0.64924 -0.3088,-1.01472z"></path><path d="M3.62501,10.3041c0.41421,0 0.75,0.3358 0.75,0.75v5.1093l0.00164,0.0022h-0.00004c0.5562,0.7472 3.02239,3.6166 7.87339,3.6166c4.851,0 7.3172,-2.8694 7.8734,-3.6166l0.0016,-0.0021v-5.1094c0,-0.4142 0.3358,-0.75 0.75,-0.75c0.4142,0 0.75,0.3358 0.75,0.75v5.1188v0.0031c-0.0014,0.321 -0.1069,0.6328 -0.3007,0.8885c-0.7041,0.9445 -3.5627,4.2177 -9.0743,4.2177c-5.51162,0 -8.37022,-3.2732 -9.07426,-4.2177c-0.19381,-0.2557 -0.29937,-0.5675 -0.30073,-0.8885l-0.00001,-0.0031h0.00001v-5.1188c0,-0.4142 0.33578,-0.75 0.75,-0.75z"></path></g></g></svg>